TITLE ""
FILE "LR_black_phrase_E_C09.mp3" MP3
  TRACK 01 AUDIO
    TITLE "LR_black_phrase_E_C09_001"
    INDEX 01 00:00:00
  TRACK 02 AUDIO
    TITLE "LR_black_phrase_E_C09_002"
    INDEX 01 00:00:14
  TRACK 03 AUDIO
    TITLE "LR_black_phrase_E_C09_003"
    INDEX 01 00:01:49
  TRACK 04 AUDIO
    TITLE "LR_black_phrase_E_C09_004"
    INDEX 01 00:02:01
  TRACK 05 AUDIO
    TITLE "LR_black_phrase_E_C09_005"
    INDEX 01 00:04:06
  TRACK 06 AUDIO
    TITLE "LR_black_phrase_E_C09_006"
    INDEX 01 00:04:63
  TRACK 07 AUDIO
    TITLE "LR_black_phrase_E_C09_007"
    INDEX 01 00:06:68
  TRACK 08 AUDIO
    TITLE "LR_black_phrase_E_C09_008"
    INDEX 01 00:07:73
  TRACK 09 AUDIO
    TITLE "LR_black_phrase_E_C09_009"
    INDEX 01 00:09:23
  TRACK 10 AUDIO
    TITLE "LR_black_phrase_E_C09_010"
    INDEX 01 00:09:52
  TRACK 11 AUDIO
    TITLE "LR_black_phrase_E_C09_011"
    INDEX 01 00:11:55
  TRACK 12 AUDIO
    TITLE "LR_black_phrase_E_C09_012"
    INDEX 01 00:12:35
  TRACK 13 AUDIO
    TITLE "LR_black_phrase_E_C09_013"
    INDEX 01 00:14:38
  TRACK 14 AUDIO
    TITLE "LR_black_phrase_E_C09_014"
    INDEX 01 00:15:37
  TRACK 15 AUDIO
    TITLE "LR_black_phrase_E_C09_015"
    INDEX 01 00:17:11
  TRACK 16 AUDIO
    TITLE "LR_black_phrase_E_C09_016"
    INDEX 01 00:17:28
  TRACK 17 AUDIO
    TITLE "LR_black_phrase_E_C09_017"
    INDEX 01 00:20:07
  TRACK 18 AUDIO
    TITLE "LR_black_phrase_E_C09_018"
    INDEX 01 00:20:58
  TRACK 19 AUDIO
    TITLE "LR_black_phrase_E_C09_019"
    INDEX 01 00:23:35
  TRACK 20 AUDIO
    TITLE "LR_black_phrase_E_C09_020"
    INDEX 01 00:24:34
  TRACK 21 AUDIO
    TITLE "LR_black_phrase_E_C09_021"
    INDEX 01 00:25:55
  TRACK 22 AUDIO
    TITLE "LR_black_phrase_E_C09_022"
    INDEX 01 00:26:02
  TRACK 23 AUDIO
    TITLE "LR_black_phrase_E_C09_023"
    INDEX 01 00:28:60
  TRACK 24 AUDIO
    TITLE "LR_black_phrase_E_C09_024"
    INDEX 01 00:29:34
  TRACK 25 AUDIO
    TITLE "LR_black_phrase_E_C09_025"
    INDEX 01 00:32:22
  TRACK 26 AUDIO
    TITLE "LR_black_phrase_E_C09_026"
    INDEX 01 00:33:23
  TRACK 27 AUDIO
    TITLE "LR_black_phrase_E_C09_027"
    INDEX 01 00:34:43
  TRACK 28 AUDIO
    TITLE "LR_black_phrase_E_C09_028"
    INDEX 01 00:34:72
  TRACK 29 AUDIO
    TITLE "LR_black_phrase_E_C09_029"
    INDEX 01 00:37:31
  TRACK 30 AUDIO
    TITLE "LR_black_phrase_E_C09_030"
    INDEX 01 00:38:11
  TRACK 31 AUDIO
    TITLE "LR_black_phrase_E_C09_031"
    INDEX 01 00:40:43
  TRACK 32 AUDIO
    TITLE "LR_black_phrase_E_C09_032"
    INDEX 01 00:41:46
  TRACK 33 AUDIO
    TITLE "LR_black_phrase_E_C09_033"
    INDEX 01 00:42:60
  TRACK 34 AUDIO
    TITLE "LR_black_phrase_E_C09_034"
    INDEX 01 00:43:18
  TRACK 35 AUDIO
    TITLE "LR_black_phrase_E_C09_035"
    INDEX 01 00:45:29
  TRACK 36 AUDIO
    TITLE "LR_black_phrase_E_C09_036"
    INDEX 01 00:46:06
  TRACK 37 AUDIO
    TITLE "LR_black_phrase_E_C09_037"
    INDEX 01 00:48:17
  TRACK 38 AUDIO
    TITLE "LR_black_phrase_E_C09_038"
    INDEX 01 00:49:17
  TRACK 39 AUDIO
    TITLE "LR_black_phrase_E_C09_039"
    INDEX 01 00:50:42
  TRACK 40 AUDIO
    TITLE "LR_black_phrase_E_C09_040"
    INDEX 01 00:50:63
  TRACK 41 AUDIO
    TITLE "LR_black_phrase_E_C09_041"
    INDEX 01 00:53:44
  TRACK 42 AUDIO
    TITLE "LR_black_phrase_E_C09_042"
    INDEX 01 00:54:18
  TRACK 43 AUDIO
    TITLE "LR_black_phrase_E_C09_043"
    INDEX 01 00:56:72
  TRACK 44 AUDIO
    TITLE "LR_black_phrase_E_C09_044"
    INDEX 01 00:57:67
  TRACK 45 AUDIO
    TITLE "LR_black_phrase_E_C09_045"
    INDEX 01 00:59:17
  TRACK 46 AUDIO
    TITLE "LR_black_phrase_E_C09_046"
    INDEX 01 00:59:39
  TRACK 47 AUDIO
    TITLE "LR_black_phrase_E_C09_047"
    INDEX 01 01:01:43
  TRACK 48 AUDIO
    TITLE "LR_black_phrase_E_C09_048"
    INDEX 01 01:02:15
  TRACK 49 AUDIO
    TITLE "LR_black_phrase_E_C09_049"
    INDEX 01 01:04:18
  TRACK 50 AUDIO
    TITLE "LR_black_phrase_E_C09_050"
    INDEX 01 01:05:22
  TRACK 51 AUDIO
    TITLE "LR_black_phrase_E_C09_051"
    INDEX 01 01:06:27
  TRACK 52 AUDIO
    TITLE "LR_black_phrase_E_C09_052"
    INDEX 01 01:06:62
  TRACK 53 AUDIO
    TITLE "LR_black_phrase_E_C09_053"
    INDEX 01 01:08:45
  TRACK 54 AUDIO
    TITLE "LR_black_phrase_E_C09_054"
    INDEX 01 01:09:19
  TRACK 55 AUDIO
    TITLE "LR_black_phrase_E_C09_055"
    INDEX 01 01:10:74
  TRACK 56 AUDIO
    TITLE "LR_black_phrase_E_C09_056"
    INDEX 01 01:12:02
  TRACK 57 AUDIO
    TITLE "LR_black_phrase_E_C09_057"
    INDEX 01 01:13:39
  TRACK 58 AUDIO
    TITLE "LR_black_phrase_E_C09_058"
    INDEX 01 01:13:66
  TRACK 59 AUDIO
    TITLE "LR_black_phrase_E_C09_059"
    INDEX 01 01:16:08
  TRACK 60 AUDIO
    TITLE "LR_black_phrase_E_C09_060"
    INDEX 01 01:16:62
  TRACK 61 AUDIO
    TITLE "LR_black_phrase_E_C09_061"
    INDEX 01 01:19:02
  TRACK 62 AUDIO
    TITLE "LR_black_phrase_E_C09_062"
    INDEX 01 01:20:01
  TRACK 63 AUDIO
    TITLE "LR_black_phrase_E_C09_063"
    INDEX 01 01:20:74
  TRACK 64 AUDIO
    TITLE "LR_black_phrase_E_C09_064"
    INDEX 01 01:21:19
  TRACK 65 AUDIO
    TITLE "LR_black_phrase_E_C09_065"
    INDEX 01 01:23:31
  TRACK 66 AUDIO
    TITLE "LR_black_phrase_E_C09_066"
    INDEX 01 01:23:74
  TRACK 67 AUDIO
    TITLE "LR_black_phrase_E_C09_067"
    INDEX 01 01:26:14
  TRACK 68 AUDIO
    TITLE "LR_black_phrase_E_C09_068"
    INDEX 01 01:27:07
  TRACK 69 AUDIO
    TITLE "LR_black_phrase_E_C09_069"
    INDEX 01 01:28:17
  TRACK 70 AUDIO
    TITLE "LR_black_phrase_E_C09_070"
    INDEX 01 01:28:36
  TRACK 71 AUDIO
    TITLE "LR_black_phrase_E_C09_071"
    INDEX 01 01:30:33
  TRACK 72 AUDIO
    TITLE "LR_black_phrase_E_C09_072"
    INDEX 01 01:31:05
  TRACK 73 AUDIO
    TITLE "LR_black_phrase_E_C09_073"
    INDEX 01 01:32:75
  TRACK 74 AUDIO
    TITLE "LR_black_phrase_E_C09_074"
    INDEX 01 01:34:02
  TRACK 75 AUDIO
    TITLE "LR_black_phrase_E_C09_075"
    INDEX 01 01:35:19
  TRACK 76 AUDIO
    TITLE "LR_black_phrase_E_C09_076"
    INDEX 01 01:35:46
  TRACK 77 AUDIO
    TITLE "LR_black_phrase_E_C09_077"
    INDEX 01 01:37:51
  TRACK 78 AUDIO
    TITLE "LR_black_phrase_E_C09_078"
    INDEX 01 01:38:33
  TRACK 79 AUDIO
    TITLE "LR_black_phrase_E_C09_079"
    INDEX 01 01:40:36
  TRACK 80 AUDIO
    TITLE "LR_black_phrase_E_C09_080"
    INDEX 01 01:41:43
  TRACK 81 AUDIO
    TITLE "LR_black_phrase_E_C09_081"
    INDEX 01 01:42:58
  TRACK 82 AUDIO
    TITLE "LR_black_phrase_E_C09_082"
    INDEX 01 01:43:12
  TRACK 83 AUDIO
    TITLE "LR_black_phrase_E_C09_083"
    INDEX 01 01:45:19
  TRACK 84 AUDIO
    TITLE "LR_black_phrase_E_C09_084"
    INDEX 01 01:45:74
  TRACK 85 AUDIO
    TITLE "LR_black_phrase_E_C09_085"
    INDEX 01 01:48:08
  TRACK 86 AUDIO
    TITLE "LR_black_phrase_E_C09_086"
    INDEX 01 01:49:07
  TRACK 87 AUDIO
    TITLE "LR_black_phrase_E_C09_087"
    INDEX 01 01:50:06
  TRACK 88 AUDIO
    TITLE "LR_black_phrase_E_C09_088"
    INDEX 01 01:50:28
  TRACK 89 AUDIO
    TITLE "LR_black_phrase_E_C09_089"
    INDEX 01 01:52:15
  TRACK 90 AUDIO
    TITLE "LR_black_phrase_E_C09_090"
    INDEX 01 01:52:62
  TRACK 91 AUDIO
    TITLE "LR_black_phrase_E_C09_091"
    INDEX 01 01:54:51
  TRACK 92 AUDIO
    TITLE "LR_black_phrase_E_C09_092"
    INDEX 01 01:55:47
  TRACK 93 AUDIO
    TITLE "LR_black_phrase_E_C09_093"
    INDEX 01 01:56:66
  TRACK 94 AUDIO
    TITLE "LR_black_phrase_E_C09_094"
    INDEX 01 01:57:24
  TRACK 95 AUDIO
    TITLE "LR_black_phrase_E_C09_095"
    INDEX 01 01:59:25
  TRACK 96 AUDIO
    TITLE "LR_black_phrase_E_C09_096"
    INDEX 01 02:00:03
  TRACK 97 AUDIO
    TITLE "LR_black_phrase_E_C09_097"
    INDEX 01 02:02:06
  TRACK 98 AUDIO
    TITLE "LR_black_phrase_E_C09_098"
    INDEX 01 02:03:05
  TRACK 99 AUDIO
    TITLE "LR_black_phrase_E_C09_099"
    INDEX 01 02:04:28
  TRACK 100 AUDIO
    TITLE "LR_black_phrase_E_C09_100"
    INDEX 01 02:04:58
  TRACK 101 AUDIO
    TITLE "LR_black_phrase_E_C09_101"
    INDEX 01 02:07:15
  TRACK 102 AUDIO
    TITLE "LR_black_phrase_E_C09_102"
    INDEX 01 02:07:70
  TRACK 103 AUDIO
    TITLE "LR_black_phrase_E_C09_103"
    INDEX 01 02:10:27
  TRACK 104 AUDIO
    TITLE "LR_black_phrase_E_C09_104"
    INDEX 01 02:11:32
  TRACK 105 AUDIO
    TITLE "LR_black_phrase_E_C09_105"
    INDEX 01 02:12:49
  TRACK 106 AUDIO
    TITLE "LR_black_phrase_E_C09_106"
    INDEX 01 02:13:04
  TRACK 107 AUDIO
    TITLE "LR_black_phrase_E_C09_107"
    INDEX 01 02:15:52
  TRACK 108 AUDIO
    TITLE "LR_black_phrase_E_C09_108"
    INDEX 01 02:16:29
  TRACK 109 AUDIO
    TITLE "LR_black_phrase_E_C09_109"
    INDEX 01 02:18:75
  TRACK 110 AUDIO
    TITLE "LR_black_phrase_E_C09_110"
    INDEX 01 02:20:04
  TRACK 111 AUDIO
    TITLE "LR_black_phrase_E_C09_111"
    INDEX 01 02:21:19
  TRACK 112 AUDIO
    TITLE "LR_black_phrase_E_C09_112"
    INDEX 01 02:21:40
  TRACK 113 AUDIO
    TITLE "LR_black_phrase_E_C09_113"
    INDEX 01 02:23:61
  TRACK 114 AUDIO
    TITLE "LR_black_phrase_E_C09_114"
    INDEX 01 02:24:29
  TRACK 115 AUDIO
    TITLE "LR_black_phrase_E_C09_115"
    INDEX 01 02:26:49
  TRACK 116 AUDIO
    TITLE "LR_black_phrase_E_C09_116"
    INDEX 01 02:27:45
  TRACK 117 AUDIO
    TITLE "LR_black_phrase_E_C09_117"
    INDEX 01 02:28:50
  TRACK 118 AUDIO
    TITLE "LR_black_phrase_E_C09_118"
    INDEX 01 02:29:03
  TRACK 119 AUDIO
    TITLE "LR_black_phrase_E_C09_119"
    INDEX 01 02:31:19
  TRACK 120 AUDIO
    TITLE "LR_black_phrase_E_C09_120"
    INDEX 01 02:31:74
  TRACK 121 AUDIO
    TITLE "LR_black_phrase_E_C09_121"
    INDEX 01 02:34:18
